<svg width="234" height="74" viewBox="0 0 234 74" fill="none" xmlns="http://www.w3.org/2000/svg" xmlns:xlink="http://www.w3.org/1999/xlink">
<path d="M0.406,73.603L21.292,48.853C22.336,48.496 23.82,48.049 25.635,47.703C27.623,47.324 29.208,47.217 31.448,47.128C33.842,47.033 36.963,46.959 40.677,47C38.642,48.035 35.712,49.586 32.278,51.631C26.463,55.094 22.575,57.968 18.801,60.701C14.524,63.798 8.337,68.205 0.406,73.603Z" fill="#FFFFFF"/>
<path d="M83.665,53.527L73.209,53.527L73.429,53.142C73.986,53.128 74.366,53.082 74.568,53.006C74.883,52.881 75.13,52.719 75.308,52.517C75.585,52.199 75.925,51.623 76.329,50.79L80.478,42.207C80.823,41.499 81.028,40.979 81.093,40.646C81.144,40.383 81.088,40.178 80.925,40.033C80.763,39.887 80.418,39.814 79.891,39.814C79.772,39.814 79.68,39.81 79.612,39.804L79.812,39.418L85.565,39.418L85.407,39.804C84.762,39.804 84.292,39.866 83.997,39.991C83.703,40.116 83.437,40.32 83.202,40.605C83.041,40.792 82.724,41.375 82.25,42.352L78.17,50.79C77.86,51.428 77.68,51.872 77.632,52.122C77.599,52.288 77.662,52.448 77.82,52.6C77.918,52.704 78.175,52.756 78.591,52.756L79.954,52.756C80.946,52.756 81.757,52.632 82.388,52.382C82.854,52.195 83.304,51.914 83.737,51.539C83.972,51.331 84.415,50.815 85.068,49.989L85.429,49.521L85.814,49.521L83.665,53.527Z" fill="#FFFFFF"/>
<path d="M96.208,39.419L102.169,39.419L101.981,39.804C101.367,39.818 100.921,39.875 100.642,39.975C100.362,40.076 100.105,40.255 99.872,40.511C99.639,40.768 99.354,41.243 99.019,41.936L96.605,46.931C96.176,47.818 95.911,48.401 95.808,48.678C95.64,49.122 95.518,49.535 95.444,49.917C95.282,50.756 95.456,51.465 95.968,52.044C96.48,52.624 97.26,52.913 98.307,52.913C98.994,52.913 99.633,52.783 100.224,52.523C100.816,52.262 101.349,51.898 101.825,51.43C102.301,50.962 102.775,50.327 103.25,49.526C103.724,48.725 104.162,47.916 104.563,47.097L106.646,42.79C107.166,41.715 107.458,41.015 107.521,40.688C107.565,40.46 107.498,40.263 107.318,40.1C107.137,39.938 106.728,39.839 106.09,39.804L106.279,39.419L110.763,39.419L110.574,39.804C110.047,39.804 109.657,39.854 109.406,39.955C109.154,40.055 108.916,40.236 108.692,40.496C108.468,40.756 108.176,41.26 107.817,42.009L105.274,47.243C104.452,48.942 103.745,50.196 103.151,51.004C102.557,51.812 101.794,52.488 100.859,53.033C99.925,53.577 98.844,53.849 97.616,53.849C96.201,53.849 95.138,53.449 94.426,52.648C93.715,51.847 93.458,50.929 93.659,49.896C93.738,49.486 93.86,49.049 94.027,48.585C94.141,48.28 94.379,47.752 94.739,47.004L97.062,42.207C97.391,41.514 97.586,41.004 97.65,40.678C97.699,40.421 97.64,40.222 97.469,40.079C97.299,39.938 96.819,39.845 96.029,39.804L96.208,39.419Z" fill="#FFFFFF"/>
<path d="M129.189,39.096L127.254,43.663L126.879,43.663L127.059,42.519C127.105,42.103 127.097,41.732 127.036,41.406C126.974,41.08 126.841,40.797 126.638,40.558C126.435,40.319 126.155,40.132 125.8,39.996C125.444,39.861 125.035,39.794 124.57,39.794C123.329,39.794 122.177,40.133 121.116,40.813C119.762,41.68 118.596,42.904 117.616,44.485C116.809,45.789 116.275,47.111 116.016,48.45C115.751,49.816 115.939,50.907 116.579,51.722C117.218,52.537 118.177,52.944 119.453,52.944C120.417,52.944 121.317,52.73 122.153,52.299C122.989,51.869 123.815,51.207 124.634,50.312L125.123,50.312C124.125,51.526 123.106,52.418 122.066,52.991C121.025,53.563 119.856,53.849 118.56,53.849C117.409,53.849 116.435,53.608 115.641,53.126C114.846,52.644 114.302,51.966 114.006,51.092C113.711,50.218 113.66,49.278 113.855,48.272C114.154,46.733 114.856,45.234 115.964,43.778C117.071,42.322 118.425,41.177 120.026,40.345C121.626,39.513 123.158,39.096 124.622,39.096C125.308,39.096 126.047,39.26 126.837,39.585C127.184,39.724 127.441,39.794 127.608,39.794C127.775,39.794 127.927,39.759 128.065,39.689C128.203,39.62 128.45,39.422 128.804,39.096L129.189,39.096Z" fill="#FFFFFF"/>
<path d="M136.269,53.142L136.08,53.527L130.275,53.527L130.495,53.142C131.08,53.128 131.475,53.08 131.678,52.996C132.006,52.878 132.263,52.715 132.449,52.507C132.741,52.181 133.089,51.599 133.495,50.759L137.599,42.249C137.944,41.541 138.151,41.007 138.221,40.647C138.256,40.466 138.241,40.314 138.174,40.189C138.109,40.064 137.99,39.969 137.819,39.903C137.648,39.837 137.296,39.804 136.762,39.804L136.961,39.419L142.412,39.419L142.224,39.804C141.781,39.797 141.442,39.845 141.207,39.949C140.868,40.088 140.592,40.286 140.379,40.543C140.166,40.799 139.847,41.368 139.419,42.249L135.327,50.759C134.952,51.543 134.744,52.043 134.703,52.258C134.669,52.431 134.684,52.578 134.747,52.7C134.811,52.821 134.932,52.914 135.109,52.981C135.287,53.047 135.674,53.1 136.269,53.142Z" fill="#FFFFFF"/>
<path d="M149.173,39.804L149.393,39.419L154.429,39.419C155.275,39.419 156.004,39.55 156.615,39.814C157.226,40.078 157.651,40.445 157.89,40.917C158.127,41.389 158.195,41.888 158.093,42.415C157.936,43.227 157.501,43.96 156.788,44.615C156.075,45.271 155.026,45.755 153.64,46.067C154.431,46.386 154.978,46.81 155.277,47.336C155.578,47.864 155.667,48.443 155.544,49.074C155.409,49.774 155.099,50.444 154.615,51.081C154.13,51.72 153.571,52.216 152.937,52.57C152.304,52.923 151.572,53.183 150.742,53.35C150.15,53.468 149.252,53.527 148.045,53.527L142.874,53.527L143.083,53.142C143.627,53.128 144.005,53.076 144.216,52.986C144.517,52.868 144.744,52.711 144.9,52.518C145.118,52.254 145.456,51.651 145.916,50.707L150.099,42.166C150.454,41.444 150.66,40.938 150.716,40.646C150.765,40.39 150.71,40.187 150.548,40.038C150.386,39.889 150.038,39.814 149.504,39.814C149.386,39.814 149.276,39.811 149.173,39.804ZM146.755,52.611C147.485,52.708 148.062,52.757 148.485,52.757C149.567,52.757 150.588,52.431 151.551,51.779C152.513,51.127 153.102,50.243 153.318,49.126C153.484,48.272 153.354,47.607 152.93,47.128C152.506,46.649 151.718,46.411 150.567,46.411C150.345,46.411 150.072,46.421 149.749,46.441L146.755,52.611ZM150.15,45.661C150.598,45.675 150.923,45.682 151.124,45.682C152.567,45.682 153.701,45.368 154.527,44.74C155.352,44.113 155.857,43.327 156.039,42.384C156.178,41.67 156.07,41.113 155.718,40.714C155.364,40.315 154.717,40.116 153.773,40.116C153.524,40.116 153.197,40.158 152.792,40.241L150.15,45.661Z" fill="#FFFFFF"/>
<path d="M171.188,40.178L168.496,45.755L169.816,45.755C170.76,45.755 171.471,45.611 171.95,45.323C172.429,45.035 172.896,44.503 173.352,43.726L173.737,43.726L171.299,48.845L170.883,48.845C171.091,48.415 171.225,48.047 171.284,47.743C171.342,47.444 171.327,47.205 171.241,47.024C171.155,46.844 171.013,46.711 170.819,46.624C170.624,46.537 170.187,46.493 169.507,46.493L168.165,46.493L165.898,51.165C165.678,51.616 165.546,51.959 165.5,52.195C165.465,52.376 165.521,52.535 165.668,52.674C165.767,52.771 166.052,52.819 166.524,52.819L167.772,52.819C169.125,52.819 170.254,52.58 171.163,52.102C172.07,51.623 172.962,50.79 173.836,49.605L174.221,49.605L172.13,53.527L161.227,53.527L161.436,53.142C161.98,53.128 162.354,53.08 162.557,52.996C162.858,52.871 163.09,52.712 163.253,52.518C163.496,52.233 163.833,51.637 164.265,50.728L168.39,42.218C168.717,41.531 168.916,41.007 168.986,40.647C169.037,40.383 168.984,40.177 168.829,40.027C168.675,39.879 168.331,39.804 167.797,39.804L167.578,39.804L167.777,39.419L177.911,39.419L176.378,42.821L175.993,42.821C176.103,42.502 176.179,42.235 176.221,42.02C176.292,41.652 176.262,41.344 176.13,41.094C175.956,40.775 175.66,40.532 175.241,40.366C174.932,40.241 174.177,40.178 172.978,40.178L171.188,40.178Z" fill="#FFFFFF"/>
<path d="M189.817,53.527L179.361,53.527L179.581,53.142C180.138,53.128 180.518,53.082 180.72,53.006C181.036,52.881 181.282,52.719 181.46,52.517C181.737,52.199 182.077,51.623 182.481,50.79L186.63,42.207C186.975,41.499 187.18,40.979 187.245,40.646C187.296,40.383 187.24,40.178 187.078,40.033C186.915,39.887 186.57,39.814 186.043,39.814C185.925,39.814 185.832,39.81 185.764,39.804L185.964,39.418L191.717,39.418L191.559,39.804C190.914,39.804 190.444,39.866 190.15,39.991C189.855,40.116 189.589,40.32 189.354,40.605C189.194,40.792 188.876,41.375 188.402,42.352L184.323,50.79C184.012,51.428 183.832,51.872 183.783,52.122C183.751,52.288 183.814,52.448 183.972,52.6C184.07,52.704 184.327,52.756 184.743,52.756L186.106,52.756C187.098,52.756 187.909,52.632 188.54,52.382C189.006,52.195 189.456,51.914 189.89,51.539C190.124,51.331 190.567,50.815 191.22,49.989L191.581,49.521L191.966,49.521L189.817,53.527Z" fill="#FFFFFF"/>
<path d="M206.609,53.527L196.153,53.527L196.373,53.142C196.93,53.128 197.31,53.082 197.512,53.006C197.828,52.881 198.074,52.719 198.252,52.517C198.529,52.199 198.869,51.623 199.273,50.79L203.422,42.207C203.767,41.499 203.972,40.979 204.037,40.646C204.088,40.383 204.031,40.178 203.87,40.033C203.707,39.887 203.362,39.814 202.835,39.814C202.717,39.814 202.624,39.81 202.556,39.804L202.756,39.418L208.509,39.418L208.351,39.804C207.706,39.804 207.236,39.866 206.941,39.991C206.647,40.116 206.382,40.32 206.146,40.605C205.986,40.792 205.668,41.375 205.194,42.352L201.114,50.79C200.804,51.428 200.624,51.872 200.575,52.122C200.543,52.288 200.606,52.448 200.764,52.6C200.862,52.704 201.119,52.756 201.535,52.756L202.898,52.756C203.89,52.756 204.701,52.632 205.332,52.382C205.798,52.195 206.248,51.914 206.681,51.539C206.916,51.331 207.359,50.815 208.012,49.989L208.373,49.521L208.758,49.521L206.609,53.527Z" fill="#FFFFFF"/>
<path d="M226.924,39.096C227.86,39.096 228.65,39.299 229.293,39.705C229.935,40.111 230.384,40.711 230.64,41.505C230.895,42.299 230.94,43.123 230.775,43.976C230.482,45.488 229.736,47.074 228.537,48.736C227.338,50.397 225.946,51.664 224.362,52.538C222.778,53.412 221.23,53.849 219.717,53.849C218.628,53.849 217.765,53.608 217.127,53.126C216.488,52.644 216.07,52.007 215.873,51.217C215.676,50.426 215.649,49.66 215.793,48.918C216.049,47.6 216.618,46.298 217.502,45.011C218.386,43.724 219.351,42.649 220.4,41.786C221.448,40.922 222.517,40.258 223.606,39.794C224.694,39.329 225.8,39.096 226.924,39.096ZM226.441,39.762C225.748,39.762 225.036,39.934 224.308,40.277C223.579,40.62 222.813,41.182 222.01,41.962C221.206,42.743 220.422,43.764 219.658,45.026C218.719,46.58 218.116,48.047 217.848,49.427C217.657,50.413 217.741,51.285 218.1,52.044C218.46,52.804 219.163,53.183 220.211,53.183C220.841,53.183 221.491,53.027 222.159,52.715C222.826,52.403 223.562,51.869 224.367,51.113C225.377,50.162 226.305,48.951 227.153,47.477C228,46.003 228.547,44.628 228.794,43.351C228.977,42.408 228.885,41.574 228.52,40.849C228.154,40.125 227.461,39.762 226.441,39.762Z" fill="#FFFFFF"/>
<path d="M143.14,62.593L143.14,64.869C143.14,65.361 143.193,65.666 143.301,65.786C143.447,65.954 143.668,66.039 143.964,66.039L144.263,66.039L144.263,66.252L140.915,66.252L140.915,66.039L141.209,66.039C141.54,66.039 141.776,65.931 141.918,65.716C141.995,65.597 142.033,65.315 142.033,64.869L142.033,59.822C142.033,59.33 141.981,59.025 141.877,58.906C141.728,58.737 141.505,58.652 141.209,58.652L140.915,58.652L140.915,58.439L143.779,58.439C144.478,58.439 145.03,58.511 145.433,58.655C145.836,58.799 146.176,59.042 146.453,59.384C146.729,59.726 146.868,60.131 146.868,60.6C146.868,61.237 146.657,61.756 146.236,62.156C145.816,62.555 145.222,62.755 144.453,62.755C144.265,62.755 144.061,62.741 143.842,62.714C143.624,62.688 143.389,62.647 143.14,62.593ZM143.14,62.265C143.343,62.303 143.524,62.332 143.681,62.351C143.839,62.371 143.973,62.38 144.084,62.38C144.484,62.38 144.829,62.226 145.119,61.916C145.409,61.607 145.554,61.207 145.554,60.715C145.554,60.377 145.485,60.063 145.346,59.773C145.208,59.483 145.012,59.266 144.759,59.122C144.505,58.978 144.217,58.906 143.894,58.906C143.698,58.906 143.447,58.943 143.14,59.015L143.14,62.265Z" fill="#FFFFFF"/>
<path d="M151.598,58.261C152.612,58.261 153.49,58.646 154.234,59.416C154.977,60.186 155.349,61.147 155.349,62.3C155.349,63.487 154.974,64.472 154.225,65.255C153.476,66.039 152.57,66.431 151.505,66.431C150.43,66.431 149.526,66.049 148.795,65.284C148.063,64.52 147.697,63.531 147.697,62.317C147.697,61.076 148.12,60.064 148.964,59.281C149.698,58.601 150.576,58.261 151.598,58.261ZM151.488,58.682C150.789,58.682 150.228,58.941 149.806,59.459C149.28,60.104 149.016,61.049 149.016,62.294C149.016,63.569 149.289,64.55 149.835,65.238C150.253,65.761 150.806,66.022 151.494,66.022C152.228,66.022 152.833,65.735 153.312,65.163C153.79,64.591 154.029,63.688 154.029,62.455C154.029,61.118 153.766,60.122 153.24,59.465C152.817,58.943 152.234,58.682 151.488,58.682Z" fill="#FFFFFF"/>
<path d="M161.214,58.261L161.214,60.963L161.001,60.963C160.932,60.445 160.807,60.032 160.629,59.724C160.451,59.417 160.196,59.173 159.865,58.993C159.535,58.812 159.193,58.722 158.84,58.722C158.44,58.722 158.11,58.844 157.849,59.087C157.588,59.332 157.457,59.609 157.457,59.92C157.457,60.158 157.54,60.375 157.705,60.571C157.943,60.859 158.509,61.243 159.405,61.723C160.134,62.115 160.633,62.416 160.9,62.625C161.167,62.835 161.372,63.081 161.516,63.366C161.661,63.65 161.732,63.948 161.732,64.259C161.732,64.85 161.503,65.36 161.044,65.788C160.585,66.217 159.994,66.431 159.272,66.431C159.045,66.431 158.832,66.413 158.632,66.379C158.514,66.359 158.267,66.289 157.892,66.169C157.518,66.048 157.28,65.987 157.18,65.987C157.084,65.987 157.009,66.016 156.953,66.074C156.897,66.131 156.856,66.251 156.829,66.431L156.616,66.431L156.616,63.752L156.829,63.752C156.929,64.313 157.063,64.732 157.233,65.011C157.401,65.289 157.66,65.52 158.008,65.705C158.355,65.889 158.736,65.982 159.151,65.982C159.631,65.982 160.01,65.855 160.289,65.601C160.568,65.348 160.707,65.048 160.707,64.702C160.707,64.51 160.654,64.316 160.548,64.121C160.442,63.925 160.279,63.742 160.056,63.573C159.906,63.458 159.497,63.213 158.828,62.839C158.16,62.464 157.685,62.165 157.402,61.943C157.12,61.72 156.906,61.474 156.76,61.205C156.614,60.936 156.541,60.64 156.541,60.317C156.541,59.757 156.756,59.274 157.186,58.868C157.617,58.463 158.164,58.261 158.828,58.261C159.243,58.261 159.683,58.362 160.148,58.566C160.363,58.662 160.515,58.71 160.603,58.71C160.703,58.71 160.784,58.681 160.848,58.621C160.911,58.561 160.963,58.441 161.001,58.261L161.214,58.261Z" fill="#FFFFFF"/>
<path d="M166.008,66.039L166.008,66.252L162.66,66.252L162.66,66.039L162.937,66.039C163.26,66.039 163.494,65.945 163.64,65.757C163.732,65.634 163.778,65.338 163.778,64.87L163.778,59.822C163.778,59.427 163.753,59.165 163.703,59.038C163.665,58.943 163.586,58.86 163.467,58.791C163.298,58.699 163.121,58.653 162.937,58.653L162.66,58.653L162.66,58.439L166.008,58.439L166.008,58.653L165.726,58.653C165.406,58.653 165.174,58.747 165.028,58.935C164.932,59.058 164.884,59.353 164.884,59.822L164.884,64.87C164.884,65.265 164.909,65.526 164.959,65.653C164.997,65.749 165.078,65.831 165.201,65.901C165.366,65.993 165.541,66.039 165.726,66.039L166.008,66.039Z" fill="#FFFFFF"/>
<path d="M173.124,58.439L173.21,60.272L172.991,60.272C172.949,59.949 172.891,59.718 172.818,59.58C172.699,59.357 172.541,59.193 172.343,59.087C172.145,58.981 171.885,58.928 171.562,58.928L170.462,58.928L170.462,64.898C170.462,65.378 170.514,65.678 170.617,65.797C170.763,65.958 170.988,66.039 171.291,66.039L171.562,66.039L171.562,66.252L168.249,66.252L168.249,66.039L168.526,66.039C168.856,66.039 169.09,65.939 169.229,65.739C169.313,65.616 169.355,65.336 169.355,64.898L169.355,58.928L168.416,58.928C168.051,58.928 167.792,58.955 167.639,59.009C167.439,59.083 167.268,59.223 167.126,59.43C166.983,59.637 166.899,59.918 166.872,60.272L166.653,60.272L166.745,58.439L173.124,58.439Z" fill="#FFFFFF"/>
<path d="M177.958,63.637L174.933,63.637L174.403,64.87C174.272,65.173 174.207,65.4 174.207,65.549C174.207,65.669 174.263,65.773 174.377,65.863C174.49,65.954 174.735,66.012 175.111,66.039L175.111,66.252L172.651,66.252L172.651,66.039C172.978,65.982 173.189,65.907 173.285,65.815C173.481,65.63 173.698,65.255 173.936,64.691L176.684,58.261L176.886,58.261L179.606,64.76C179.824,65.282 180.023,65.622 180.202,65.777C180.381,65.933 180.629,66.02 180.948,66.039L180.948,66.252L177.866,66.252L177.866,66.039C178.177,66.024 178.387,65.972 178.496,65.884C178.606,65.795 178.661,65.687 178.661,65.561C178.661,65.392 178.584,65.125 178.43,64.76L177.958,63.637ZM177.796,63.21L176.471,60.053L175.111,63.21L177.796,63.21Z" fill="#FFFFFF"/>
<path d="M180.925,58.439L183.045,58.439L187.822,64.299L187.822,59.793C187.822,59.313 187.768,59.013 187.66,58.894C187.518,58.733 187.293,58.652 186.986,58.652L186.716,58.652L186.716,58.439L189.435,58.439L189.435,58.652L189.159,58.652C188.828,58.652 188.594,58.752 188.455,58.952C188.371,59.075 188.329,59.355 188.329,59.793L188.329,66.378L188.121,66.378L182.97,60.087L182.97,64.898C182.97,65.378 183.022,65.678 183.126,65.797C183.272,65.958 183.497,66.039 183.8,66.039L184.076,66.039L184.076,66.252L181.357,66.252L181.357,66.039L181.628,66.039C181.962,66.039 182.198,65.939 182.337,65.739C182.421,65.616 182.463,65.336 182.463,64.898L182.463,59.465C182.237,59.2 182.064,59.025 181.948,58.94C181.83,58.856 181.658,58.777 181.432,58.704C181.321,58.67 181.151,58.652 180.925,58.652L180.925,58.439Z" fill="#FFFFFF"/>
<path d="M193.918,58.261C194.932,58.261 195.81,58.646 196.554,59.416C197.297,60.186 197.669,61.147 197.669,62.3C197.669,63.487 197.294,64.472 196.545,65.255C195.796,66.039 194.89,66.431 193.826,66.431C192.75,66.431 191.846,66.049 191.115,65.284C190.383,64.52 190.017,63.531 190.017,62.317C190.017,61.076 190.439,60.064 191.285,59.281C192.018,58.601 192.896,58.261 193.918,58.261ZM193.808,58.682C193.109,58.682 192.548,58.941 192.126,59.459C191.6,60.104 191.337,61.049 191.337,62.294C191.337,63.569 191.609,64.55 192.155,65.238C192.573,65.761 193.126,66.022 193.814,66.022C194.548,66.022 195.153,65.735 195.632,65.163C196.11,64.591 196.349,63.688 196.349,62.455C196.349,61.118 196.086,60.122 195.56,59.465C195.137,58.943 194.554,58.682 193.808,58.682Z" fill="#FFFFFF"/>
<path d="M39.24,49.172L42.306,47.831C44.224,48.011 47.395,48.37 51.264,49.124C58.93,50.619 64.916,52.805 74.401,56.31C79.702,58.269 79.922,58.489 84.125,59.951C85.359,60.38 90.557,62.175 97.825,64.118C105.655,66.211 108.185,66.417 110.759,66.226C113.384,66.031 115.525,65.462 116.987,64.98C119.302,64.645 121.617,64.31 123.933,63.974C122.236,64.878 120.153,65.822 117.705,66.609C114.553,67.623 111.706,68.083 109.418,68.285C107.497,68.295 104.723,68.212 101.418,67.759C100.408,67.62 97.94,67.254 91.359,65.459C87.246,64.338 82.864,63.133 77.083,61.052C73.488,59.758 70.323,58.474 67.646,57.316C64.069,55.729 59.989,54.154 55.431,52.765C49.496,50.957 44.018,49.851 39.24,49.172Z" fill="#FFFFFF"/>
<path d="M120.338,18.575L124.412,19.281C125.202,19.787 126.384,20.493 127.885,21.197C130.98,22.648 133.534,23.202 135.501,23.616C144.084,25.421 148.406,26.17 149.225,26.274C162.819,28.002 166.742,28.043 177.369,29.412C179.137,29.64 186.538,30.609 195.931,32.549C201.028,33.603 204.957,34.58 209.559,36.55C212.995,38.019 215.699,39.569 217.535,40.717C216.338,40.597 215.14,40.478 213.943,40.358C212.678,39.713 211.003,38.914 208.988,38.099C208.988,38.099 207.645,37.557 206.278,37.077C201.983,35.567 197.094,34.63 195.404,34.322C189.036,33.209 183.834,32.516 180.338,32.095C170.465,30.905 165.562,30.846 156.076,29.34C151.726,28.65 148.214,27.941 146.016,27.472C144.174,27.116 142.289,26.718 140.363,26.274C136.862,25.467 133.538,24.577 130.399,23.64C128.971,23.125 127.424,22.489 125.801,21.7C123.713,20.685 121.892,19.608 120.338,18.575Z" fill="#FFFFFF"/>
<path d="M19.408,13.197L23.911,43.376C24.594,43.916 25.652,44.634 27.072,45.148C27.715,45.381 29.302,45.888 34.018,45.675C35.369,45.614 37.168,45.486 39.288,45.196C45.3,44.462 51.764,43.428 58.593,41.987C67.07,40.197 74.803,38.056 81.73,35.807C86.51,33.932 92.808,31.977 100.364,30.921C106.732,30.031 112.369,30.008 116.939,30.298C118.708,30.336 120.823,30.52 123.166,31.017C124.923,31.389 126.479,31.866 127.813,32.358C131.613,32.821 135.413,33.284 139.214,33.747C135.911,32.472 132.114,31.217 127.861,30.155C123.484,29.062 119.435,28.377 115.837,27.951C111.467,27.645 106.452,27.6 100.939,28.095C91.043,28.983 82.767,31.32 76.509,33.652C69.512,35.96 63.607,37.592 59.12,38.729C53.383,40.182 49.883,40.845 47.335,41.268C44.532,41.734 42.15,42.033 40.39,42.226C38.443,42.307 36.497,42.389 34.551,42.471C34.14,42.488 33.746,42.314 33.484,41.997C33.188,41.64 32.842,41.207 32.47,40.709C30.854,38.553 29.875,36.707 29.404,35.791C26.943,31.016 24.805,25.636 24.805,25.636C23.603,22.612 21.832,18.36 19.408,13.197Z" fill="#FFFFFF"/>
<path d="M126.312,7.88C127.647,8.253 128.984,8.625 130.319,8.997C131.069,9.674 132.151,10.581 133.545,11.52C133.545,11.52 133.661,11.598 133.776,11.674C137.065,13.836 141.465,15.289 141.465,15.289C147.037,17.128 150.599,17.843 150.599,17.843C161.523,20.038 178.916,21.987 180.714,22.187C186.402,23.012 192.951,24.389 200.035,26.689C204.468,28.13 208.486,29.729 212.074,31.352C213.876,32.106 216.066,33.209 218.366,34.833C220.272,36.179 221.802,37.563 222.997,38.793C221.559,38.474 220.122,38.154 218.685,37.835C217.635,36.848 216.039,35.495 213.895,34.194C211.45,32.712 209.419,31.981 206.646,31.001C204.65,30.295 201.937,29.441 198.63,28.701C195.584,28.118 192.443,27.572 189.209,27.073C183.625,26.211 178.251,25.565 173.113,25.093C168.591,24.551 163.616,23.732 158.295,22.506C153.507,21.403 149.122,20.128 145.17,18.802C142.621,17.966 139.709,16.811 136.611,15.193C134.308,13.99 132.287,12.732 130.543,11.52C129.133,10.307 127.722,9.094 126.312,7.88Z" fill="#FFFFFF"/>
<path d="M156.842,-0.168L160.028,1.149C161.491,2.651 163.275,4.265 165.417,5.836C169.569,8.881 173.609,10.699 176.77,11.808C184.434,14.801 192.099,17.796 199.764,20.79C203.085,22.147 206.678,23.794 210.446,25.795C214.295,27.84 217.735,29.941 220.769,31.975C221.864,32.686 223.176,33.676 224.497,35.025C225.604,36.155 226.452,37.264 227.092,38.226C226.158,37.779 225.224,37.332 224.29,36.885C223.044,35.512 221.468,33.98 219.516,32.47C218.458,31.651 216.967,30.59 215.086,29.524C214.902,29.42 213.857,28.831 212.601,28.238C207.727,25.939 194.148,20.931 186.207,17.867C183.277,16.737 180.198,15.423 177.009,13.892C175.091,12.97 173.263,12.032 171.525,11.089C169.614,10.053 167.714,8.991 165.369,7.401C163.496,6.13 161.869,4.873 160.483,3.712C159.269,2.418 158.056,1.125 156.842,-0.168Z" fill="#FFFFFF"/>
<path d="M233.594,39.434C233.594,40.183 233.005,40.771 232.24,40.771C231.483,40.771 230.878,40.183 230.878,39.434C230.878,38.7 231.483,38.112 232.24,38.112C233.005,38.112 233.594,38.7 233.594,39.434ZM231.217,39.434C231.217,40.022 231.652,40.489 232.248,40.489C232.828,40.489 233.255,40.022 233.255,39.441C233.255,38.853 232.828,38.378 232.24,38.378C231.652,38.378 231.217,38.853 231.217,39.434ZM232.031,40.126L231.724,40.126L231.724,38.805C231.845,38.781 232.014,38.765 232.232,38.765C232.482,38.765 232.594,38.805 232.691,38.862C232.763,38.918 232.82,39.023 232.82,39.151C232.82,39.297 232.707,39.41 232.546,39.458L232.546,39.474C232.675,39.522 232.747,39.619 232.788,39.796C232.828,39.998 232.852,40.078 232.885,40.126L232.554,40.126C232.514,40.078 232.49,39.957 232.449,39.804C232.425,39.659 232.345,39.595 232.176,39.595L232.031,39.595L232.031,40.126ZM232.038,39.377L232.183,39.377C232.353,39.377 232.49,39.321 232.49,39.184C232.49,39.063 232.401,38.983 232.208,38.983C232.127,38.983 232.071,38.991 232.038,38.999L232.038,39.377Z" fill="#FFFFFF"/>
</svg>
