<svg width="420" height="134" viewBox="0 0 420 134" fill="none" xmlns="http://www.w3.org/2000/svg" xmlns:xlink="http://www.w3.org/1999/xlink">
<path d="M0,132.871L37.618,88.293C39.499,87.651 42.17,86.846 45.44,86.222C49.021,85.539 51.876,85.347 55.909,85.187C60.222,85.015 65.844,84.881 72.532,84.956C68.867,86.819 63.59,89.613 57.405,93.297C46.932,99.535 39.928,104.71 33.131,109.633C25.428,115.212 14.285,123.148 0,132.871Z" fill="#FFFFFF"/>
<path d="M149.959,96.711L131.126,96.711L131.523,96.018C132.527,95.992 133.21,95.911 133.575,95.774C134.143,95.549 134.587,95.256 134.907,94.893C135.406,94.319 136.019,93.282 136.747,91.782L144.22,76.323C144.841,75.049 145.211,74.112 145.326,73.512C145.418,73.038 145.317,72.669 145.025,72.407C144.732,72.144 144.112,72.013 143.162,72.013C142.948,72.013 142.782,72.006 142.66,71.994L143.019,71.301L153.381,71.301L153.097,71.994C151.935,71.994 151.089,72.106 150.558,72.331C150.027,72.557 149.549,72.925 149.126,73.437C148.835,73.774 148.264,74.824 147.411,76.585L140.063,91.782C139.504,92.932 139.179,93.731 139.092,94.182C139.034,94.481 139.148,94.768 139.431,95.043C139.608,95.23 140.071,95.324 140.82,95.324L143.275,95.324C145.061,95.324 146.523,95.099 147.659,94.65C148.499,94.313 149.309,93.807 150.09,93.132C150.512,92.757 151.31,91.827 152.486,90.34L153.137,89.496L153.83,89.496L149.959,96.711Z" fill="#FFFFFF"/>
<path d="M172.551,71.301L183.289,71.301L182.949,71.995C181.844,72.02 181.04,72.123 180.537,72.304C180.033,72.484 179.57,72.807 179.151,73.269C178.73,73.731 178.218,74.587 177.614,75.836L173.267,84.831C172.494,86.43 172.016,87.479 171.832,87.979C171.528,88.778 171.308,89.522 171.175,90.209C170.882,91.72 171.196,92.998 172.119,94.041C173.041,95.085 174.445,95.605 176.332,95.605C177.57,95.605 178.721,95.371 179.785,94.903C180.851,94.434 181.811,93.778 182.668,92.935C183.525,92.093 184.38,90.949 185.234,89.506C186.088,88.063 186.876,86.605 187.6,85.13L191.351,77.373C192.288,75.437 192.814,74.176 192.927,73.588C193.007,73.176 192.885,72.822 192.561,72.528C192.235,72.236 191.5,72.058 190.351,71.995L190.69,71.301L198.767,71.301L198.426,71.995C197.477,71.995 196.775,72.086 196.322,72.266C195.869,72.448 195.44,72.772 195.037,73.241C194.633,73.709 194.108,74.618 193.461,75.967L188.879,85.393C187.399,88.453 186.126,90.712 185.056,92.167C183.986,93.623 182.611,94.841 180.929,95.822C179.246,96.802 177.298,97.292 175.087,97.292C172.538,97.292 170.623,96.571 169.342,95.128C168.06,93.685 167.599,92.033 167.96,90.172C168.103,89.434 168.323,88.647 168.623,87.811C168.829,87.261 169.257,86.311 169.905,84.963L174.09,76.323C174.682,75.074 175.034,74.157 175.148,73.569C175.237,73.107 175.129,72.748 174.823,72.491C174.516,72.236 173.652,72.07 172.23,71.995L172.551,71.301Z" fill="#FFFFFF"/>
<path d="M231.953,70.721L228.468,78.946L227.794,78.946L228.117,76.886C228.201,76.136 228.186,75.468 228.075,74.88C227.964,74.293 227.725,73.784 227.359,73.353C226.993,72.922 226.489,72.585 225.85,72.341C225.209,72.098 224.472,71.976 223.634,71.976C221.399,71.976 219.324,72.588 217.414,73.812C214.974,75.374 212.874,77.579 211.11,80.427C209.656,82.776 208.694,85.156 208.227,87.567C207.751,90.028 208.089,91.992 209.241,93.46C210.393,94.928 212.119,95.662 214.417,95.662C216.154,95.662 217.775,95.276 219.281,94.5C220.787,93.726 222.275,92.533 223.75,90.921L224.63,90.921C222.833,93.107 220.998,94.715 219.124,95.746C217.25,96.777 215.144,97.292 212.809,97.292C210.736,97.292 208.982,96.858 207.553,95.989C206.121,95.122 205.139,93.901 204.607,92.327C204.075,90.752 203.985,89.06 204.335,87.248C204.873,84.475 206.139,81.776 208.133,79.153C210.128,76.529 212.566,74.468 215.45,72.969C218.332,71.47 221.091,70.721 223.728,70.721C224.964,70.721 226.295,71.014 227.717,71.601C228.343,71.851 228.806,71.976 229.105,71.976C229.406,71.976 229.681,71.913 229.93,71.788C230.178,71.664 230.622,71.307 231.26,70.721L231.953,70.721Z" fill="#FFFFFF"/>
<path d="M244.706,96.018L244.365,96.712L233.91,96.712L234.306,96.018C235.36,95.993 236.07,95.906 236.438,95.755C237.027,95.543 237.491,95.25 237.826,94.875C238.352,94.288 238.979,93.238 239.709,91.727L247.1,76.398C247.723,75.124 248.096,74.162 248.222,73.512C248.285,73.188 248.257,72.913 248.138,72.688C248.02,72.463 247.806,72.292 247.498,72.173C247.19,72.054 246.555,71.995 245.593,71.995L245.951,71.301L255.771,71.301L255.431,71.995C254.634,71.982 254.024,72.07 253.599,72.257C252.989,72.507 252.492,72.863 252.109,73.325C251.725,73.787 251.15,74.812 250.38,76.398L243.008,91.727C242.334,93.139 241.96,94.038 241.885,94.425C241.824,94.737 241.852,95.003 241.964,95.222C242.079,95.44 242.297,95.608 242.616,95.728C242.937,95.847 243.634,95.943 244.706,96.018Z" fill="#FFFFFF"/>
<path d="M267.948,71.995L268.345,71.301L277.414,71.301C278.938,71.301 280.251,71.538 281.352,72.013C282.453,72.488 283.218,73.15 283.647,74C284.075,74.849 284.198,75.749 284.013,76.698C283.731,78.159 282.947,79.481 281.663,80.661C280.378,81.842 278.489,82.713 275.994,83.276C277.419,83.85 278.402,84.613 278.942,85.562C279.483,86.511 279.644,87.554 279.423,88.691C279.179,89.953 278.621,91.158 277.749,92.307C276.876,93.457 275.869,94.35 274.728,94.988C273.586,95.624 272.268,96.093 270.774,96.393C269.708,96.605 268.089,96.711 265.915,96.711L256.602,96.711L256.979,96.018C257.959,95.993 258.639,95.899 259.02,95.737C259.561,95.524 259.971,95.243 260.251,94.894C260.643,94.419 261.253,93.332 262.082,91.633L269.616,76.249C270.255,74.949 270.625,74.037 270.726,73.512C270.816,73.051 270.716,72.685 270.424,72.416C270.132,72.148 269.505,72.013 268.544,72.013C268.331,72.013 268.133,72.007 267.948,71.995ZM263.592,95.062C264.908,95.236 265.946,95.324 266.708,95.324C268.657,95.324 270.497,94.737 272.231,93.563C273.963,92.389 275.025,90.797 275.414,88.785C275.712,87.248 275.479,86.049 274.715,85.186C273.951,84.324 272.532,83.894 270.459,83.894C270.059,83.894 269.568,83.913 268.986,83.949L263.592,95.062ZM269.708,82.545C270.515,82.57 271.1,82.582 271.462,82.582C274.06,82.582 276.103,82.017 277.59,80.886C279.077,79.756 279.986,78.341 280.314,76.641C280.564,75.355 280.371,74.353 279.736,73.635C279.099,72.916 277.933,72.557 276.233,72.557C275.784,72.557 275.195,72.632 274.466,72.782L269.708,82.545Z" fill="#FFFFFF"/>
<path d="M307.6,72.669L302.75,82.714L305.129,82.714C306.829,82.714 308.11,82.454 308.972,81.936C309.834,81.418 310.676,80.458 311.496,79.059L312.19,79.059L307.799,88.279L307.05,88.279C307.425,87.504 307.666,86.843 307.772,86.293C307.876,85.755 307.85,85.325 307.695,85C307.539,84.675 307.285,84.435 306.935,84.278C306.584,84.122 305.796,84.044 304.572,84.044L302.154,84.044L298.071,92.458C297.675,93.27 297.438,93.888 297.355,94.313C297.292,94.638 297.393,94.925 297.657,95.175C297.835,95.35 298.349,95.437 299.199,95.437L301.447,95.437C303.883,95.437 305.918,95.006 307.555,94.144C309.189,93.282 310.794,91.783 312.369,89.647L313.063,89.647L309.296,96.712L289.658,96.712L290.035,96.018C291.014,95.993 291.687,95.906 292.054,95.756C292.596,95.531 293.014,95.243 293.307,94.894C293.745,94.381 294.352,93.307 295.13,91.671L302.559,76.343C303.149,75.106 303.507,74.162 303.633,73.512C303.725,73.038 303.63,72.667 303.351,72.397C303.074,72.13 302.453,71.995 301.491,71.995L301.097,71.995L301.456,71.301L319.708,71.301L316.947,77.43L316.253,77.43C316.452,76.855 316.589,76.374 316.664,75.986C316.792,75.324 316.738,74.768 316.501,74.318C316.187,73.744 315.654,73.307 314.9,73.006C314.342,72.782 312.984,72.669 310.823,72.669L307.6,72.669Z" fill="#FFFFFF"/>
<path d="M341.152,96.711L322.32,96.711L322.716,96.018C323.72,95.992 324.403,95.911 324.768,95.774C325.336,95.549 325.78,95.256 326.1,94.893C326.599,94.319 327.212,93.282 327.94,91.782L335.413,76.323C336.034,75.049 336.404,74.112 336.52,73.512C336.611,73.038 336.511,72.669 336.218,72.407C335.926,72.144 335.304,72.013 334.354,72.013C334.142,72.013 333.975,72.006 333.853,71.994L334.212,71.301L344.574,71.301L344.291,71.994C343.129,71.994 342.282,72.106 341.751,72.331C341.22,72.557 340.743,72.925 340.319,73.437C340.03,73.774 339.457,74.824 338.604,76.585L331.256,91.782C330.697,92.932 330.372,93.731 330.285,94.182C330.228,94.481 330.341,94.768 330.625,95.043C330.801,95.23 331.263,95.324 332.013,95.324L334.468,95.324C336.254,95.324 337.716,95.099 338.852,94.65C339.692,94.313 340.502,93.807 341.283,93.132C341.705,92.757 342.504,91.827 343.679,90.34L344.329,89.496L345.024,89.496L341.152,96.711Z" fill="#FFFFFF"/>
<path d="M371.397,96.711L352.564,96.711L352.961,96.018C353.965,95.992 354.648,95.911 355.013,95.774C355.581,95.549 356.025,95.256 356.345,94.893C356.844,94.319 357.457,93.282 358.185,91.782L365.658,76.323C366.279,75.049 366.649,74.112 366.765,73.512C366.856,73.038 366.755,72.669 366.463,72.407C366.17,72.144 365.548,72.013 364.599,72.013C364.387,72.013 364.22,72.006 364.098,71.994L364.457,71.301L374.819,71.301L374.535,71.994C373.373,71.994 372.527,72.106 371.996,72.331C371.465,72.557 370.987,72.925 370.564,73.437C370.275,73.774 369.702,74.824 368.849,76.585L361.501,91.782C360.942,92.932 360.617,93.731 360.53,94.182C360.472,94.481 360.586,94.768 360.869,95.043C361.046,95.23 361.508,95.324 362.258,95.324L364.713,95.324C366.499,95.324 367.961,95.099 369.097,94.65C369.937,94.313 370.747,93.807 371.528,93.132C371.95,92.757 372.749,91.827 373.924,90.34L374.574,89.496L375.268,89.496L371.397,96.711Z" fill="#FFFFFF"/>
<path d="M407.987,70.721C409.673,70.721 411.095,71.086 412.253,71.816C413.41,72.547 414.219,73.628 414.679,75.058C415.139,76.489 415.22,77.972 414.923,79.509C414.396,82.232 413.051,85.09 410.892,88.082C408.733,91.074 406.226,93.357 403.372,94.931C400.519,96.504 397.73,97.292 395.007,97.292C393.045,97.292 391.49,96.858 390.341,95.989C389.19,95.122 388.438,93.975 388.083,92.551C387.728,91.126 387.68,89.747 387.939,88.41C388.399,86.036 389.424,83.691 391.017,81.374C392.608,79.056 394.348,77.12 396.236,75.564C398.123,74.009 400.049,72.812 402.01,71.976C403.971,71.139 405.963,70.721 407.987,70.721ZM407.117,71.919C405.868,71.919 404.587,72.229 403.274,72.848C401.962,73.465 400.582,74.478 399.136,75.882C397.688,77.288 396.277,79.128 394.9,81.401C393.208,84.2 392.122,86.842 391.64,89.327C391.297,91.103 391.447,92.673 392.095,94.041C392.742,95.409 394.009,96.093 395.895,96.093C397.031,96.093 398.201,95.812 399.404,95.249C400.605,94.688 401.931,93.725 403.382,92.364C405.2,90.652 406.872,88.469 408.399,85.814C409.925,83.16 410.91,80.683 411.355,78.384C411.684,76.685 411.519,75.183 410.861,73.878C410.202,72.573 408.954,71.919 407.117,71.919Z" fill="#FFFFFF"/>
<path d="M257.081,113.041L257.081,117.14C257.081,118.026 257.177,118.576 257.371,118.791C257.634,119.095 258.032,119.247 258.565,119.247L259.104,119.247L259.104,119.631L253.074,119.631L253.074,119.247L253.604,119.247C254.199,119.247 254.625,119.054 254.88,118.667C255.019,118.452 255.088,117.943 255.088,117.14L255.088,108.05C255.088,107.164 254.995,106.614 254.807,106.4C254.538,106.096 254.137,105.943 253.604,105.943L253.074,105.943L253.074,105.559L258.233,105.559C259.492,105.559 260.485,105.689 261.21,105.949C261.937,106.207 262.55,106.645 263.048,107.261C263.546,107.877 263.795,108.607 263.795,109.451C263.795,110.599 263.416,111.533 262.658,112.253C261.901,112.973 260.831,113.332 259.447,113.332C259.107,113.332 258.741,113.308 258.346,113.26C257.952,113.211 257.53,113.138 257.081,113.041ZM257.081,112.45C257.447,112.519 257.772,112.57 258.056,112.605C258.34,112.64 258.582,112.657 258.782,112.657C259.502,112.657 260.123,112.379 260.645,111.822C261.168,111.265 261.429,110.544 261.429,109.659C261.429,109.05 261.305,108.485 261.055,107.961C260.806,107.439 260.453,107.048 259.997,106.789C259.54,106.53 259.022,106.4 258.44,106.4C258.087,106.4 257.634,106.466 257.081,106.597L257.081,112.45Z" fill="#FFFFFF"/>
<path d="M272.315,105.238C274.141,105.238 275.724,105.931 277.063,107.319C278.401,108.706 279.071,110.437 279.071,112.512C279.071,114.65 278.396,116.425 277.047,117.836C275.698,119.247 274.065,119.953 272.149,119.953C270.212,119.953 268.584,119.265 267.266,117.888C265.948,116.512 265.289,114.73 265.289,112.543C265.289,110.309 266.05,108.486 267.572,107.075C268.893,105.85 270.475,105.238 272.315,105.238ZM272.118,105.996C270.859,105.996 269.849,106.462 269.088,107.396C268.14,108.558 267.666,110.26 267.666,112.502C267.666,114.799 268.157,116.566 269.139,117.805C269.893,118.746 270.89,119.217 272.129,119.217C273.45,119.217 274.541,118.701 275.403,117.67C276.264,116.639 276.694,115.013 276.694,112.793C276.694,110.385 276.22,108.59 275.272,107.407C274.512,106.466 273.46,105.996 272.118,105.996Z" fill="#FFFFFF"/>
<path d="M289.634,105.238L289.634,110.105L289.251,110.105C289.126,109.171 288.903,108.427 288.581,107.873C288.26,107.32 287.801,106.881 287.206,106.556C286.611,106.23 285.995,106.068 285.359,106.068C284.639,106.068 284.044,106.288 283.574,106.727C283.103,107.166 282.868,107.666 282.868,108.227C282.868,108.655 283.017,109.046 283.315,109.4C283.743,109.917 284.763,110.61 286.376,111.474C287.69,112.18 288.588,112.722 289.069,113.099C289.55,113.476 289.92,113.92 290.18,114.432C290.439,114.944 290.568,115.48 290.568,116.041C290.568,117.106 290.155,118.025 289.328,118.796C288.502,119.567 287.438,119.953 286.137,119.953C285.729,119.953 285.345,119.922 284.985,119.859C284.771,119.824 284.326,119.698 283.652,119.481C282.977,119.263 282.549,119.154 282.37,119.154C282.197,119.154 282.06,119.206 281.96,119.31C281.86,119.414 281.786,119.628 281.737,119.953L281.353,119.953L281.353,115.128L281.737,115.128C281.917,116.138 282.159,116.893 282.464,117.395C282.768,117.897 283.233,118.313 283.86,118.645C284.486,118.978 285.172,119.144 285.919,119.144C286.784,119.144 287.467,118.916 287.968,118.459C288.471,118.002 288.721,117.463 288.721,116.84C288.721,116.493 288.626,116.144 288.436,115.792C288.245,115.439 287.95,115.11 287.549,114.806C287.279,114.598 286.542,114.157 285.338,113.483C284.135,112.808 283.278,112.27 282.77,111.869C282.261,111.468 281.875,111.025 281.613,110.54C281.35,110.057 281.219,109.524 281.219,108.942C281.219,107.932 281.606,107.062 282.38,106.332C283.155,105.603 284.141,105.238 285.338,105.238C286.085,105.238 286.878,105.421 287.715,105.788C288.102,105.961 288.375,106.047 288.535,106.047C288.714,106.047 288.861,105.994 288.976,105.887C289.089,105.779 289.182,105.563 289.251,105.238L289.634,105.238Z" fill="#FFFFFF"/>
<path d="M298.269,119.247L298.269,119.631L292.24,119.631L292.24,119.247L292.737,119.247C293.319,119.247 293.741,119.078 294.004,118.739C294.17,118.518 294.253,117.985 294.253,117.141L294.253,108.05C294.253,107.338 294.208,106.867 294.118,106.638C294.049,106.466 293.907,106.317 293.692,106.193C293.388,106.026 293.07,105.944 292.737,105.944L292.24,105.944L292.24,105.559L298.269,105.559L298.269,105.944L297.761,105.944C297.186,105.944 296.768,106.113 296.505,106.452C296.332,106.673 296.245,107.206 296.245,108.05L296.245,117.141C296.245,117.853 296.29,118.324 296.38,118.552C296.449,118.725 296.595,118.873 296.817,118.998C297.113,119.165 297.429,119.247 297.761,119.247L298.269,119.247Z" fill="#FFFFFF"/>
<path d="M311.086,105.559L311.241,108.86L310.847,108.86C310.771,108.278 310.667,107.863 310.536,107.614C310.321,107.213 310.036,106.917 309.679,106.726C309.323,106.536 308.854,106.44 308.273,106.44L306.291,106.44L306.291,117.192C306.291,118.058 306.385,118.597 306.572,118.811C306.835,119.102 307.239,119.247 307.786,119.247L308.273,119.247L308.273,119.631L302.306,119.631L302.306,119.247L302.804,119.247C303.399,119.247 303.821,119.067 304.071,118.707C304.222,118.486 304.299,117.981 304.299,117.192L304.299,106.44L302.607,106.44C301.95,106.44 301.483,106.489 301.206,106.586C300.846,106.718 300.538,106.97 300.283,107.344C300.026,107.717 299.875,108.223 299.826,108.86L299.432,108.86L299.598,105.559L311.086,105.559Z" fill="#FFFFFF"/>
<path d="M319.792,114.92L314.344,114.92L313.389,117.141C313.154,117.687 313.036,118.096 313.036,118.365C313.036,118.58 313.138,118.769 313.343,118.931C313.546,119.094 313.987,119.199 314.666,119.247L314.666,119.631L310.234,119.631L310.234,119.247C310.822,119.144 311.203,119.009 311.376,118.843C311.729,118.511 312.119,117.836 312.549,116.819L317.498,105.238L317.862,105.238L322.76,116.943C323.154,117.885 323.513,118.496 323.835,118.775C324.156,119.056 324.604,119.212 325.178,119.247L325.178,119.631L319.626,119.631L319.626,119.247C320.187,119.22 320.565,119.127 320.763,118.968C320.96,118.808 321.058,118.614 321.058,118.386C321.058,118.082 320.92,117.601 320.643,116.943L319.792,114.92ZM319.502,114.152L317.114,108.465L314.666,114.152L319.502,114.152Z" fill="#FFFFFF"/>
<path d="M325.137,105.559L328.956,105.559L337.558,116.113L337.558,107.998C337.558,107.133 337.462,106.593 337.268,106.378C337.012,106.088 336.607,105.943 336.054,105.943L335.567,105.943L335.567,105.559L340.465,105.559L340.465,105.943L339.967,105.943C339.371,105.943 338.949,106.123 338.7,106.483C338.548,106.704 338.472,107.209 338.472,107.998L338.472,119.859L338.098,119.859L328.82,108.527L328.82,117.192C328.82,118.058 328.914,118.597 329.101,118.811C329.364,119.102 329.768,119.247 330.315,119.247L330.813,119.247L330.813,119.631L325.915,119.631L325.915,119.247L326.402,119.247C327.004,119.247 327.431,119.067 327.679,118.707C327.832,118.486 327.907,117.981 327.907,117.192L327.907,107.406C327.499,106.929 327.189,106.613 326.978,106.462C326.767,106.31 326.458,106.168 326.05,106.036C325.849,105.974 325.544,105.943 325.137,105.943L325.137,105.559Z" fill="#FFFFFF"/>
<path d="M348.539,105.238C350.365,105.238 351.947,105.931 353.286,107.319C354.625,108.706 355.295,110.437 355.295,112.512C355.295,114.65 354.62,116.425 353.271,117.836C351.921,119.247 350.289,119.953 348.372,119.953C346.435,119.953 344.808,119.265 343.49,117.888C342.172,116.512 341.513,114.73 341.513,112.543C341.513,110.309 342.274,108.486 343.796,107.075C345.117,105.85 346.699,105.238 348.539,105.238ZM348.342,105.996C347.082,105.996 346.072,106.462 345.312,107.396C344.363,108.558 343.889,110.26 343.889,112.502C343.889,114.799 344.381,116.566 345.363,117.805C346.117,118.746 347.113,119.217 348.352,119.217C349.673,119.217 350.764,118.701 351.626,117.67C352.488,116.639 352.918,115.013 352.918,112.793C352.918,110.385 352.444,108.59 351.496,107.407C350.735,106.466 349.684,105.996 348.342,105.996Z" fill="#FFFFFF"/>
<path d="M69.944,88.868L75.466,86.453C78.921,86.777 84.632,87.423 91.6,88.782C105.408,91.475 116.191,95.411 133.273,101.724C142.822,105.253 143.217,105.648 150.788,108.281C153.011,109.054 162.372,112.287 175.464,115.787C189.566,119.558 194.123,119.928 198.759,119.584C203.486,119.233 207.343,118.209 209.975,117.341C214.146,116.736 218.316,116.133 222.486,115.529C219.43,117.156 215.679,118.856 211.27,120.274C205.592,122.1 200.465,122.929 196.343,123.294C192.884,123.311 187.887,123.161 181.935,122.345C180.115,122.095 175.671,121.435 163.816,118.203C156.408,116.184 148.516,114.014 138.105,110.266C131.629,107.934 125.928,105.622 121.108,103.536C114.665,100.679 107.316,97.841 99.107,95.339C88.417,92.082 78.55,90.091 69.944,88.868Z" fill="#FFFFFF"/>
<path d="M216.012,33.758L223.349,35.03C224.773,35.942 226.901,37.213 229.604,38.481C235.18,41.096 239.78,42.093 243.323,42.838C258.781,46.089 266.567,47.439 268.042,47.626C292.526,50.737 299.592,50.811 318.732,53.277C321.916,53.688 335.247,55.433 352.164,58.929C361.345,60.826 368.422,62.586 376.711,66.133C382.898,68.781 387.769,71.571 391.077,73.64C388.92,73.424 386.763,73.208 384.606,72.993C382.328,71.832 379.312,70.392 375.681,68.925C375.681,68.925 373.263,67.947 370.801,67.083C363.064,64.364 354.26,62.677 351.216,62.121C339.746,60.116 330.376,58.868 324.081,58.109C306.297,55.967 297.466,55.861 280.38,53.148C272.546,51.905 266.22,50.628 262.261,49.783C258.944,49.142 255.549,48.426 252.08,47.626C245.774,46.172 239.787,44.57 234.134,42.881C231.561,41.954 228.775,40.808 225.851,39.387C222.09,37.558 218.811,35.619 216.012,33.758Z" fill="#FFFFFF"/>
<path d="M34.224,24.072L42.335,78.428C43.565,79.401 45.471,80.693 48.029,81.621C49.186,82.04 52.044,82.953 60.54,82.569C62.972,82.46 66.212,82.228 70.03,81.707C80.859,80.385 92.501,78.523 104.801,75.926C120.07,72.703 133.998,68.846 146.474,64.796C155.083,61.419 166.426,57.897 180.037,55.995C191.505,54.393 201.659,54.35 209.889,54.874C213.076,54.942 216.885,55.274 221.106,56.168C224.27,56.838 227.072,57.697 229.475,58.584C236.32,59.418 243.164,60.252 250.01,61.086C244.06,58.79 237.22,56.528 229.562,54.615C221.679,52.647 214.385,51.413 207.905,50.646C200.035,50.095 191.002,50.014 181.072,50.905C163.249,52.504 148.342,56.714 137.07,60.914C124.468,65.07 113.832,68.012 105.75,70.059C95.418,72.676 89.114,73.869 84.525,74.632C79.476,75.471 75.186,76.01 72.015,76.358C68.509,76.504 65.004,76.651 61.499,76.798C60.758,76.829 60.05,76.516 59.577,75.945C59.044,75.301 58.421,74.521 57.75,73.625C54.84,69.741 53.078,66.416 52.228,64.767C47.797,56.166 43.946,46.476 43.946,46.476C41.781,41.03 38.591,33.371 34.224,24.072Z" fill="#FFFFFF"/>
<path d="M226.771,14.497C229.177,15.167 231.584,15.838 233.99,16.508C235.34,17.728 237.289,19.361 239.799,21.052C239.799,21.052 240.007,21.192 240.215,21.329C246.139,25.223 254.064,27.84 254.064,27.84C264.1,31.152 270.515,32.441 270.515,32.441C290.191,36.393 321.518,39.905 324.756,40.264C335.002,41.751 346.797,44.23 359.556,48.374C367.54,50.968 374.778,53.849 381.24,56.772C384.486,58.13 388.429,60.117 392.572,63.042C396.005,65.466 398.762,67.96 400.913,70.174C398.324,69.599 395.735,69.024 393.147,68.448C391.255,66.672 388.382,64.234 384.519,61.891C380.116,59.221 376.459,57.906 371.463,56.139C367.868,54.869 362.983,53.33 357.025,51.998C351.539,50.947 345.881,49.963 340.057,49.064C330,47.513 320.32,46.349 311.067,45.498C302.921,44.523 293.961,43.047 284.377,40.839C275.753,38.852 267.855,36.556 260.737,34.167C256.147,32.662 250.9,30.581 245.321,27.667C241.174,25.501 237.534,23.234 234.393,21.052C231.852,18.867 229.312,16.682 226.771,14.497Z" fill="#FFFFFF"/>
<path d="M281.761,0L287.499,2.373C290.135,5.078 293.347,7.984 297.205,10.814C304.684,16.3 311.96,19.573 317.653,21.57C331.458,26.962 345.263,32.355 359.068,37.747C365.049,40.193 371.521,43.158 378.308,46.764C385.24,50.446 391.436,54.231 396.901,57.894C398.874,59.175 401.236,60.957 403.616,63.387C405.61,65.422 407.138,67.421 408.29,69.153C406.607,68.348 404.925,67.542 403.242,66.737C400.999,64.265 398.159,61.506 394.644,58.785C392.739,57.311 390.053,55.399 386.665,53.48C386.335,53.292 384.453,52.231 382.19,51.164C373.411,47.022 348.953,38.003 334.65,32.484C329.374,30.448 323.828,28.082 318.085,25.323C314.63,23.663 311.336,21.973 308.206,20.276C304.763,18.409 301.342,16.498 297.118,13.632C293.745,11.343 290.815,9.079 288.318,6.989C286.132,4.659 283.947,2.33 281.761,0Z" fill="#FFFFFF"/>
<path d="M420,71.328C420,72.678 418.94,73.736 417.561,73.736C416.198,73.736 415.11,72.678 415.11,71.328C415.11,70.007 416.198,68.948 417.561,68.948C418.94,68.948 420,70.007 420,71.328ZM415.719,71.328C415.719,72.387 416.503,73.229 417.576,73.229C418.621,73.229 419.39,72.387 419.39,71.342C419.39,70.283 418.621,69.427 417.561,69.427C416.503,69.427 415.719,70.283 415.719,71.328ZM417.185,72.576L416.633,72.576L416.633,70.196C416.851,70.153 417.156,70.124 417.547,70.124C417.997,70.124 418.2,70.196 418.374,70.298C418.505,70.4 418.606,70.588 418.606,70.82C418.606,71.081 418.403,71.285 418.113,71.371L418.113,71.4C418.346,71.487 418.476,71.662 418.549,71.981C418.621,72.344 418.665,72.489 418.723,72.576L418.127,72.576C418.055,72.489 418.012,72.271 417.939,71.996C417.895,71.734 417.75,71.618 417.446,71.618L417.185,71.618L417.185,72.576ZM417.199,71.227L417.46,71.227C417.764,71.227 418.012,71.125 418.012,70.878C418.012,70.66 417.852,70.516 417.504,70.516C417.359,70.516 417.257,70.53 417.199,70.545L417.199,71.227Z" fill="#FFFFFF"/>
</svg>
