<svg width="296" height="94" viewBox="0 0 296 94" fill="none" xmlns="http://www.w3.org/2000/svg" xmlns:xlink="http://www.w3.org/1999/xlink">
<path d="M0,93.435L26.453,62.088C27.776,61.636 29.654,61.07 31.954,60.631C34.471,60.151 36.479,60.016 39.315,59.903C42.348,59.783 46.301,59.688 51.005,59.741C48.427,61.051 44.716,63.016 40.367,65.606C33.002,69.993 28.078,73.632 23.298,77.094C17.881,81.017 10.045,86.598 0,93.435Z" fill="#FFFFFF"/>
<path d="M105.451,68.007L92.208,68.007L92.487,67.52C93.193,67.502 93.673,67.445 93.93,67.348C94.329,67.19 94.641,66.984 94.867,66.729C95.217,66.325 95.649,65.596 96.16,64.541L101.415,53.67C101.852,52.774 102.112,52.116 102.193,51.693C102.258,51.36 102.187,51.101 101.982,50.916C101.776,50.731 101.339,50.639 100.671,50.639C100.521,50.639 100.404,50.635 100.318,50.626L100.571,50.139L107.858,50.139L107.658,50.626C106.841,50.626 106.246,50.705 105.872,50.863C105.499,51.022 105.163,51.281 104.865,51.641C104.661,51.878 104.259,52.616 103.659,53.855L98.492,64.541C98.099,65.349 97.871,65.912 97.81,66.229C97.769,66.439 97.849,66.641 98.048,66.834C98.172,66.966 98.498,67.032 99.025,67.032L100.751,67.032C102.007,67.032 103.035,66.874 103.834,66.558C104.424,66.321 104.994,65.965 105.543,65.49C105.84,65.227 106.401,64.572 107.228,63.527L107.685,62.934L108.173,62.934L105.451,68.007Z" fill="#FFFFFF"/>
<path d="M121.338,50.139L128.888,50.139L128.649,50.627C127.872,50.644 127.307,50.717 126.953,50.844C126.599,50.971 126.274,51.198 125.979,51.523C125.683,51.848 125.322,52.45 124.898,53.328L121.841,59.653C121.298,60.778 120.961,61.515 120.832,61.867C120.618,62.429 120.464,62.952 120.37,63.435C120.164,64.498 120.385,65.396 121.034,66.13C121.682,66.863 122.67,67.23 123.997,67.23C124.867,67.23 125.676,67.065 126.425,66.736C127.174,66.406 127.849,65.945 128.452,65.352C129.054,64.759 129.656,63.955 130.256,62.941C130.857,61.926 131.411,60.9 131.92,59.863L134.558,54.409C135.217,53.047 135.587,52.16 135.666,51.747C135.722,51.457 135.637,51.208 135.409,51.002C135.18,50.796 134.662,50.671 133.854,50.627L134.093,50.139L139.773,50.139L139.533,50.627C138.866,50.627 138.372,50.691 138.053,50.818C137.735,50.945 137.433,51.174 137.15,51.503C136.866,51.832 136.496,52.471 136.041,53.42L132.82,60.048C131.779,62.2 130.884,63.788 130.131,64.812C129.379,65.836 128.412,66.692 127.229,67.382C126.045,68.071 124.676,68.416 123.121,68.416C121.328,68.416 119.982,67.908 119.081,66.894C118.18,65.879 117.855,64.717 118.109,63.409C118.21,62.89 118.365,62.337 118.575,61.748C118.72,61.362 119.022,60.694 119.477,59.746L122.42,53.67C122.836,52.792 123.084,52.147 123.164,51.733C123.227,51.408 123.151,51.156 122.935,50.976C122.719,50.796 122.112,50.679 121.112,50.627L121.338,50.139Z" fill="#FFFFFF"/>
<path d="M163.11,49.731L160.659,55.515L160.184,55.515L160.412,54.066C160.471,53.539 160.46,53.069 160.382,52.656C160.304,52.243 160.136,51.885 159.878,51.582C159.621,51.279 159.267,51.042 158.817,50.87C158.367,50.699 157.848,50.614 157.259,50.614C155.688,50.614 154.229,51.044 152.885,51.905C151.17,53.003 149.693,54.553 148.452,56.556C147.43,58.208 146.754,59.881 146.425,61.577C146.091,63.308 146.328,64.689 147.138,65.721C147.948,66.753 149.162,67.269 150.778,67.269C152,67.269 153.139,66.998 154.198,66.452C155.257,65.908 156.304,65.069 157.341,63.936L157.96,63.936C156.696,65.473 155.405,66.604 154.088,67.328C152.77,68.054 151.289,68.416 149.647,68.416C148.189,68.416 146.956,68.111 145.951,67.5C144.944,66.89 144.254,66.031 143.88,64.924C143.506,63.817 143.442,62.627 143.689,61.353C144.067,59.403 144.957,57.505 146.359,55.66C147.762,53.815 149.477,52.366 151.504,51.312C153.531,50.258 155.471,49.731 157.325,49.731C158.195,49.731 159.13,49.937 160.131,50.35C160.571,50.526 160.896,50.614 161.107,50.614C161.318,50.614 161.512,50.569 161.686,50.481C161.861,50.394 162.173,50.143 162.622,49.731L163.11,49.731Z" fill="#FFFFFF"/>
<path d="M172.077,67.52L171.837,68.008L164.485,68.008L164.764,67.52C165.505,67.502 166.004,67.441 166.263,67.335C166.677,67.186 167.003,66.98 167.239,66.716C167.609,66.303 168.05,65.565 168.563,64.502L173.761,53.723C174.199,52.827 174.461,52.151 174.549,51.694C174.594,51.466 174.574,51.272 174.49,51.114C174.407,50.956 174.257,50.836 174.041,50.752C173.824,50.668 173.377,50.627 172.701,50.627L172.953,50.139L179.858,50.139L179.619,50.627C179.058,50.618 178.629,50.679 178.331,50.811C177.902,50.987 177.552,51.237 177.283,51.562C177.013,51.887 176.608,52.608 176.067,53.723L170.883,64.502C170.409,65.495 170.146,66.128 170.093,66.4C170.05,66.619 170.07,66.806 170.149,66.96C170.23,67.113 170.383,67.232 170.608,67.316C170.833,67.399 171.323,67.467 172.077,67.52Z" fill="#FFFFFF"/>
<path d="M188.421,50.627L188.7,50.139L195.077,50.139C196.149,50.139 197.072,50.306 197.847,50.639C198.621,50.974 199.158,51.439 199.461,52.036C199.761,52.634 199.848,53.266 199.718,53.934C199.519,54.962 198.968,55.891 198.065,56.721C197.162,57.551 195.834,58.164 194.079,58.559C195.081,58.963 195.772,59.5 196.152,60.167C196.532,60.835 196.645,61.568 196.49,62.367C196.318,63.255 195.926,64.102 195.313,64.91C194.699,65.719 193.991,66.347 193.188,66.795C192.386,67.243 191.459,67.572 190.408,67.783C189.659,67.933 188.52,68.007 186.992,68.007L180.442,68.007L180.708,67.52C181.396,67.502 181.875,67.436 182.143,67.322C182.523,67.173 182.811,66.975 183.008,66.729C183.284,66.396 183.713,65.631 184.296,64.437L189.594,53.618C190.043,52.704 190.303,52.063 190.374,51.693C190.438,51.369 190.367,51.112 190.162,50.923C189.956,50.734 189.516,50.639 188.84,50.639C188.69,50.639 188.551,50.635 188.421,50.627ZM185.358,66.848C186.283,66.97 187.013,67.032 187.549,67.032C188.919,67.032 190.214,66.619 191.433,65.794C192.651,64.968 193.397,63.848 193.671,62.433C193.88,61.353 193.717,60.51 193.179,59.903C192.642,59.297 191.645,58.994 190.186,58.994C189.905,58.994 189.56,59.007 189.151,59.033L185.358,66.848ZM189.659,58.045C190.226,58.063 190.637,58.071 190.892,58.071C192.719,58.071 194.155,57.674 195.201,56.879C196.247,56.084 196.886,55.089 197.117,53.894C197.292,52.99 197.156,52.285 196.71,51.78C196.262,51.274 195.442,51.022 194.247,51.022C193.931,51.022 193.517,51.075 193.005,51.18L189.659,58.045Z" fill="#FFFFFF"/>
<path d="M216.304,51.101L212.894,58.164L214.566,58.164C215.762,58.164 216.663,57.982 217.269,57.617C217.875,57.253 218.467,56.578 219.044,55.595L219.532,55.595L216.444,62.078L215.917,62.078C216.181,61.533 216.35,61.068 216.425,60.681C216.498,60.303 216.48,60 216.371,59.772C216.261,59.543 216.083,59.374 215.836,59.264C215.59,59.155 215.036,59.099 214.175,59.099L212.475,59.099L209.603,65.016C209.325,65.587 209.158,66.022 209.1,66.321C209.055,66.549 209.127,66.751 209.312,66.927C209.437,67.05 209.799,67.111 210.397,67.111L211.977,67.111C213.691,67.111 215.121,66.808 216.272,66.202C217.421,65.596 218.55,64.542 219.658,63.04L220.146,63.04L217.497,68.008L203.687,68.008L203.952,67.52C204.641,67.502 205.114,67.441 205.372,67.336C205.754,67.177 206.047,66.975 206.253,66.729C206.561,66.369 206.988,65.614 207.536,64.463L212.759,53.684C213.174,52.814 213.426,52.151 213.514,51.694C213.579,51.361 213.513,51.099 213.316,50.91C213.121,50.721 212.684,50.627 212.008,50.627L211.731,50.627L211.984,50.139L224.818,50.139L222.877,54.448L222.389,54.448C222.529,54.044 222.625,53.706 222.678,53.433C222.768,52.968 222.73,52.577 222.563,52.261C222.342,51.857 221.967,51.549 221.437,51.338C221.045,51.18 220.09,51.101 218.57,51.101L216.304,51.101Z" fill="#FFFFFF"/>
<path d="M239.898,68.007L226.655,68.007L226.934,67.52C227.64,67.502 228.12,67.445 228.376,67.348C228.776,67.19 229.088,66.984 229.314,66.729C229.664,66.325 230.096,65.596 230.607,64.541L235.862,53.67C236.299,52.774 236.559,52.116 236.641,51.693C236.705,51.36 236.634,51.101 236.429,50.916C236.223,50.731 235.785,50.639 235.118,50.639C234.969,50.639 234.851,50.635 234.765,50.626L235.018,50.139L242.305,50.139L242.105,50.626C241.288,50.626 240.693,50.705 240.319,50.863C239.946,51.022 239.61,51.281 239.312,51.641C239.109,51.878 238.706,52.616 238.106,53.855L232.939,64.541C232.546,65.349 232.318,65.912 232.256,66.229C232.216,66.439 232.296,66.641 232.495,66.834C232.619,66.966 232.944,67.032 233.472,67.032L235.198,67.032C236.454,67.032 237.482,66.874 238.281,66.558C238.871,66.321 239.441,65.965 239.99,65.49C240.287,65.227 240.849,64.572 241.675,63.527L242.132,62.934L242.62,62.934L239.898,68.007Z" fill="#FFFFFF"/>
<path d="M261.166,68.007L247.923,68.007L248.202,67.52C248.908,67.502 249.388,67.445 249.645,67.348C250.044,67.19 250.356,66.984 250.582,66.729C250.932,66.325 251.364,65.596 251.875,64.541L257.13,53.67C257.567,52.774 257.827,52.116 257.909,51.693C257.973,51.36 257.902,51.101 257.697,50.916C257.491,50.731 257.053,50.639 256.386,50.639C256.237,50.639 256.119,50.635 256.033,50.626L256.286,50.139L263.573,50.139L263.373,50.626C262.556,50.626 261.961,50.705 261.587,50.863C261.214,51.022 260.878,51.281 260.58,51.641C260.377,51.878 259.974,52.616 259.374,53.855L254.207,64.541C253.814,65.349 253.586,65.912 253.524,66.229C253.484,66.439 253.563,66.641 253.763,66.834C253.887,66.966 254.212,67.032 254.74,67.032L256.466,67.032C257.722,67.032 258.75,66.874 259.549,66.558C260.139,66.321 260.709,65.965 261.258,65.49C261.555,65.227 262.117,64.572 262.943,63.527L263.401,62.934L263.888,62.934L261.166,68.007Z" fill="#FFFFFF"/>
<path d="M286.896,49.731C288.082,49.731 289.082,49.988 289.896,50.501C290.71,51.015 291.279,51.775 291.602,52.781C291.925,53.787 291.983,54.83 291.774,55.91C291.403,57.826 290.457,59.835 288.939,61.939C287.42,64.043 285.658,65.649 283.651,66.756C281.645,67.862 279.684,68.416 277.768,68.416C276.389,68.416 275.296,68.111 274.487,67.5C273.678,66.89 273.149,66.083 272.9,65.082C272.65,64.08 272.616,63.11 272.798,62.17C273.122,60.501 273.843,58.851 274.963,57.222C276.082,55.592 277.305,54.23 278.633,53.137C279.96,52.043 281.314,51.201 282.693,50.614C284.072,50.025 285.473,49.731 286.896,49.731ZM286.285,50.574C285.406,50.574 284.505,50.791 283.582,51.226C282.659,51.661 281.689,52.373 280.672,53.36C279.654,54.349 278.661,55.643 277.694,57.241C276.504,59.209 275.74,61.067 275.401,62.815C275.159,64.063 275.266,65.168 275.721,66.129C276.176,67.092 277.067,67.572 278.393,67.572C279.192,67.572 280.015,67.375 280.86,66.979C281.705,66.584 282.638,65.907 283.658,64.95C284.936,63.746 286.112,62.212 287.186,60.345C288.259,58.478 288.952,56.737 289.265,55.12C289.496,53.925 289.38,52.869 288.917,51.951C288.454,51.033 287.576,50.574 286.285,50.574Z" fill="#FFFFFF"/>
<path d="M180.779,79.491L180.779,82.373C180.779,82.996 180.847,83.383 180.983,83.534C181.168,83.748 181.448,83.855 181.823,83.855L182.202,83.855L182.202,84.125L177.962,84.125L177.962,83.855L178.334,83.855C178.753,83.855 179.052,83.718 179.232,83.446C179.329,83.295 179.378,82.938 179.378,82.373L179.378,75.981C179.378,75.358 179.312,74.971 179.18,74.82C178.991,74.606 178.709,74.499 178.334,74.499L177.962,74.499L177.962,74.229L181.589,74.229C182.474,74.229 183.173,74.32 183.683,74.503C184.194,74.685 184.625,74.993 184.975,75.426C185.325,75.859 185.5,76.372 185.5,76.966C185.5,77.773 185.234,78.43 184.701,78.936C184.169,79.442 183.416,79.695 182.443,79.695C182.204,79.695 181.947,79.678 181.669,79.644C181.392,79.61 181.095,79.559 180.779,79.491ZM180.779,79.075C181.037,79.123 181.265,79.16 181.465,79.184C181.664,79.209 181.834,79.22 181.976,79.22C182.481,79.22 182.919,79.025 183.286,78.633C183.653,78.242 183.837,77.735 183.837,77.112C183.837,76.684 183.749,76.286 183.574,75.918C183.399,75.551 183.15,75.276 182.83,75.094C182.509,74.912 182.144,74.82 181.735,74.82C181.487,74.82 181.168,74.867 180.779,74.959L180.779,79.075Z" fill="#FFFFFF"/>
<path d="M191.492,74.003C192.776,74.003 193.889,74.491 194.83,75.466C195.772,76.442 196.242,77.659 196.242,79.119C196.242,80.622 195.768,81.87 194.82,82.862C193.87,83.855 192.723,84.351 191.375,84.351C190.013,84.351 188.868,83.867 187.942,82.899C187.015,81.931 186.551,80.678 186.551,79.14C186.551,77.569 187.086,76.288 188.157,75.295C189.086,74.434 190.198,74.003 191.492,74.003ZM191.353,74.536C190.468,74.536 189.757,74.864 189.222,75.521C188.556,76.338 188.222,77.535 188.222,79.112C188.222,80.726 188.568,81.969 189.259,82.84C189.789,83.502 190.489,83.833 191.361,83.833C192.29,83.833 193.057,83.47 193.663,82.746C194.269,82.021 194.571,80.877 194.571,79.316C194.571,77.622 194.238,76.36 193.571,75.528C193.036,74.867 192.297,74.536 191.353,74.536Z" fill="#FFFFFF"/>
<path d="M203.671,74.003L203.671,77.425L203.401,77.425C203.313,76.769 203.156,76.246 202.93,75.856C202.704,75.468 202.382,75.158 201.963,74.93C201.545,74.701 201.112,74.587 200.664,74.587C200.158,74.587 199.74,74.741 199.409,75.05C199.078,75.359 198.913,75.711 198.913,76.105C198.913,76.406 199.017,76.681 199.227,76.93C199.528,77.294 200.245,77.781 201.38,78.389C202.304,78.885 202.935,79.266 203.273,79.531C203.611,79.796 203.872,80.109 204.054,80.469C204.237,80.829 204.327,81.206 204.327,81.6C204.327,82.349 204.037,82.995 203.455,83.537C202.874,84.08 202.126,84.351 201.211,84.351C200.924,84.351 200.655,84.329 200.401,84.285C200.251,84.26 199.938,84.172 199.464,84.019C198.989,83.866 198.688,83.789 198.562,83.789C198.441,83.789 198.345,83.825 198.274,83.898C198.204,83.972 198.151,84.123 198.117,84.351L197.847,84.351L197.847,80.958L198.117,80.958C198.244,81.668 198.414,82.199 198.629,82.552C198.842,82.905 199.169,83.198 199.61,83.431C200.05,83.665 200.533,83.782 201.058,83.782C201.666,83.782 202.147,83.621 202.499,83.3C202.852,82.979 203.029,82.6 203.029,82.162C203.029,81.918 202.962,81.673 202.828,81.425C202.694,81.177 202.486,80.945 202.204,80.732C202.014,80.585 201.496,80.275 200.65,79.801C199.803,79.326 199.201,78.948 198.844,78.666C198.486,78.384 198.214,78.072 198.03,77.732C197.845,77.392 197.753,77.017 197.753,76.608C197.753,75.898 198.025,75.286 198.57,74.773C199.115,74.26 199.808,74.003 200.65,74.003C201.175,74.003 201.732,74.132 202.321,74.39C202.593,74.511 202.785,74.572 202.897,74.572C203.024,74.572 203.127,74.535 203.207,74.459C203.287,74.384 203.352,74.232 203.401,74.003L203.671,74.003Z" fill="#FFFFFF"/>
<path d="M209.742,83.855L209.742,84.125L205.503,84.125L205.503,83.855L205.853,83.855C206.262,83.855 206.559,83.736 206.744,83.497C206.86,83.342 206.919,82.967 206.919,82.374L206.919,75.981C206.919,75.48 206.887,75.149 206.823,74.988C206.775,74.867 206.675,74.762 206.524,74.675C206.311,74.558 206.086,74.5 205.853,74.5L205.503,74.5L205.503,74.229L209.742,74.229L209.742,74.5L209.385,74.5C208.981,74.5 208.687,74.619 208.502,74.857C208.38,75.013 208.32,75.387 208.32,75.981L208.32,82.374C208.32,82.874 208.351,83.205 208.415,83.366C208.463,83.487 208.565,83.592 208.721,83.68C208.93,83.797 209.152,83.855 209.385,83.855L209.742,83.855Z" fill="#FFFFFF"/>
<path d="M218.755,74.229L218.865,76.55L218.587,76.55C218.534,76.141 218.461,75.849 218.369,75.674C218.217,75.392 218.017,75.184 217.766,75.05C217.516,74.916 217.186,74.849 216.778,74.849L215.384,74.849L215.384,82.409C215.384,83.018 215.45,83.397 215.581,83.548C215.766,83.753 216.05,83.854 216.435,83.854L216.778,83.854L216.778,84.125L212.581,84.125L212.581,83.854L212.932,83.854C213.35,83.854 213.647,83.728 213.822,83.475C213.929,83.319 213.983,82.964 213.983,82.409L213.983,74.849L212.793,74.849C212.331,74.849 212.002,74.883 211.808,74.951C211.555,75.044 211.338,75.221 211.159,75.484C210.978,75.747 210.872,76.103 210.837,76.55L210.56,76.55L210.677,74.229L218.755,74.229Z" fill="#FFFFFF"/>
<path d="M224.877,80.812L221.046,80.812L220.375,82.374C220.21,82.758 220.127,83.045 220.127,83.234C220.127,83.386 220.199,83.518 220.342,83.632C220.486,83.747 220.796,83.82 221.273,83.855L221.273,84.125L218.157,84.125L218.157,83.855C218.57,83.782 218.838,83.687 218.96,83.571C219.207,83.337 219.482,82.862 219.784,82.147L223.265,74.003L223.52,74.003L226.965,82.234C227.242,82.896 227.494,83.326 227.72,83.523C227.946,83.72 228.261,83.83 228.665,83.855L228.665,84.125L224.761,84.125L224.761,83.855C225.155,83.836 225.421,83.77 225.56,83.658C225.699,83.546 225.768,83.409 225.768,83.249C225.768,83.035 225.671,82.697 225.476,82.234L224.877,80.812ZM224.673,80.272L222.995,76.273L221.273,80.272L224.673,80.272Z" fill="#FFFFFF"/>
<path d="M228.636,74.229L231.321,74.229L237.371,81.651L237.371,75.944C237.371,75.336 237.303,74.956 237.166,74.805C236.986,74.601 236.702,74.499 236.313,74.499L235.97,74.499L235.97,74.229L239.415,74.229L239.415,74.499L239.064,74.499C238.646,74.499 238.349,74.626 238.174,74.878C238.067,75.034 238.013,75.389 238.013,75.944L238.013,84.285L237.751,84.285L231.226,76.316L231.226,82.409C231.226,83.018 231.292,83.397 231.424,83.548C231.608,83.753 231.893,83.854 232.277,83.854L232.628,83.854L232.628,84.125L229.183,84.125L229.183,83.854L229.526,83.854C229.949,83.854 230.249,83.728 230.424,83.475C230.531,83.319 230.584,82.964 230.584,82.409L230.584,75.528C230.297,75.193 230.079,74.971 229.931,74.864C229.783,74.757 229.565,74.657 229.278,74.565C229.137,74.521 228.923,74.499 228.636,74.499L228.636,74.229Z" fill="#FFFFFF"/>
<path d="M245.092,74.003C246.376,74.003 247.489,74.491 248.431,75.466C249.372,76.442 249.843,77.659 249.843,79.119C249.843,80.622 249.369,81.87 248.42,82.862C247.471,83.855 246.323,84.351 244.975,84.351C243.613,84.351 242.469,83.867 241.542,82.899C240.615,81.931 240.152,80.678 240.152,79.14C240.152,77.569 240.687,76.288 241.757,75.295C242.686,74.434 243.798,74.003 245.092,74.003ZM244.953,74.536C244.068,74.536 243.358,74.864 242.823,75.521C242.156,76.338 241.823,77.535 241.823,79.112C241.823,80.726 242.168,81.969 242.859,82.84C243.389,83.502 244.09,83.833 244.961,83.833C245.89,83.833 246.657,83.47 247.263,82.746C247.869,82.021 248.172,80.877 248.172,79.316C248.172,77.622 247.838,76.36 247.172,75.528C246.637,74.867 245.898,74.536 244.953,74.536Z" fill="#FFFFFF"/>
<path d="M49.184,62.492L53.068,60.793C55.497,61.021 59.513,61.476 64.413,62.431C74.123,64.325 81.705,67.093 93.717,71.532C100.432,74.014 100.71,74.292 106.034,76.143C107.597,76.687 114.18,78.96 123.386,81.421C133.303,84.073 136.507,84.333 139.767,84.091C143.091,83.844 145.803,83.124 147.655,82.514C150.587,82.089 153.52,81.664 156.452,81.24C154.303,82.384 151.665,83.58 148.565,84.577C144.572,85.86 140.967,86.443 138.068,86.7C135.636,86.712 132.122,86.607 127.936,86.033C126.657,85.857 123.532,85.393 115.195,83.121C109.986,81.7 104.436,80.174 97.115,77.539C92.561,75.899 88.553,74.274 85.163,72.806C80.632,70.797 75.464,68.802 69.692,67.042C62.175,64.752 55.237,63.352 49.184,62.492Z" fill="#FFFFFF"/>
<path d="M151.899,23.739L157.059,24.633C158.06,25.274 159.557,26.168 161.458,27.06C165.378,28.898 168.613,29.6 171.105,30.123C181.975,32.41 187.45,33.359 188.487,33.491C205.704,35.679 210.673,35.731 224.132,37.465C226.371,37.753 235.745,38.98 247.642,41.439C254.098,42.773 259.074,44.011 264.903,46.505C269.254,48.367 272.679,50.329 275.005,51.784C273.488,51.632 271.971,51.48 270.455,51.329C268.853,50.512 266.732,49.5 264.179,48.468C264.179,48.468 262.478,47.78 260.747,47.173C255.307,45.261 249.115,44.074 246.975,43.683C238.909,42.274 232.32,41.396 227.893,40.862C215.388,39.356 209.178,39.281 197.163,37.374C191.654,36.499 187.206,35.601 184.422,35.008C182.089,34.557 179.702,34.053 177.263,33.491C172.828,32.468 168.618,31.342 164.643,30.154C162.833,29.502 160.875,28.696 158.819,27.697C156.174,26.411 153.868,25.047 151.899,23.739Z" fill="#FFFFFF"/>
<path d="M24.067,16.927L29.77,55.151C30.635,55.834 31.975,56.744 33.774,57.396C34.588,57.69 36.598,58.332 42.571,58.063C44.282,57.986 46.56,57.823 49.245,57.456C56.86,56.527 65.046,55.217 73.696,53.391C84.433,51.125 94.227,48.413 103.001,45.565C109.055,43.19 117.031,40.713 126.602,39.376C134.667,38.249 141.807,38.219 147.594,38.587C149.835,38.635 152.513,38.869 155.482,39.497C157.707,39.968 159.677,40.573 161.367,41.196C166.18,41.783 170.993,42.369 175.807,42.956C171.623,41.341 166.814,39.75 161.428,38.405C155.885,37.021 150.755,36.154 146.199,35.614C140.665,35.226 134.312,35.17 127.33,35.796C114.796,36.921 104.314,39.881 96.387,42.834C87.526,45.758 80.047,47.826 74.363,49.265C67.098,51.106 62.665,51.945 59.438,52.481C55.887,53.071 52.871,53.45 50.641,53.695C48.176,53.798 45.711,53.901 43.246,54.004C42.725,54.026 42.227,53.806 41.895,53.404C41.52,52.952 41.082,52.403 40.61,51.773C38.564,49.042 37.324,46.704 36.727,45.544C33.611,39.496 30.903,32.682 30.903,32.682C29.38,28.852 27.137,23.467 24.067,16.927Z" fill="#FFFFFF"/>
<path d="M159.465,10.194C161.157,10.666 162.85,11.137 164.542,11.609C165.491,12.466 166.861,13.614 168.627,14.804C168.627,14.804 168.773,14.902 168.919,14.998C173.085,17.737 178.658,19.577 178.658,19.577C185.715,21.906 190.226,22.813 190.226,22.813C204.062,25.592 226.092,28.061 228.369,28.313C235.573,29.359 243.868,31.102 252.839,34.016C258.454,35.841 263.543,37.866 268.088,39.922C270.37,40.877 273.143,42.274 276.056,44.331C278.47,46.035 280.409,47.789 281.922,49.346C280.101,48.942 278.281,48.537 276.461,48.133C275.131,46.883 273.11,45.169 270.394,43.522C267.297,41.644 264.725,40.719 261.212,39.477C258.684,38.584 255.249,37.501 251.06,36.565C247.202,35.826 243.224,35.134 239.128,34.502C232.056,33.411 225.249,32.593 218.742,31.994C213.014,31.308 206.713,30.271 199.974,28.718C193.91,27.321 188.356,25.706 183.35,24.026C180.122,22.968 176.433,21.505 172.51,19.456C169.593,17.932 167.034,16.338 164.825,14.804C163.038,13.267 161.252,11.731 159.465,10.194Z" fill="#FFFFFF"/>
<path d="M198.134,0L202.169,1.669C204.022,3.571 206.281,5.614 208.994,7.604C214.254,11.462 219.37,13.763 223.374,15.168C233.081,18.96 242.788,22.752 252.496,26.544C256.702,28.264 261.253,30.349 266.026,32.884C270.9,35.474 275.258,38.135 279.101,40.711C280.488,41.612 282.149,42.865 283.823,44.573C285.225,46.005 286.299,47.41 287.109,48.628C285.926,48.062 284.743,47.496 283.56,46.93C281.982,45.191 279.985,43.251 277.513,41.338C276.174,40.301 274.285,38.956 271.903,37.607C271.67,37.475 270.347,36.729 268.756,35.978C262.582,33.066 245.384,26.724 235.326,22.843C231.616,21.411 227.715,19.747 223.677,17.807C221.247,16.64 218.932,15.452 216.73,14.258C214.309,12.946 211.904,11.601 208.933,9.586C206.561,7.977 204.501,6.385 202.745,4.914C201.208,3.276 199.671,1.638 198.134,0Z" fill="#FFFFFF"/>
<path d="M295.344,50.158C295.344,51.107 294.598,51.851 293.629,51.851C292.67,51.851 291.905,51.107 291.905,50.158C291.905,49.229 292.67,48.484 293.629,48.484C294.598,48.484 295.344,49.229 295.344,50.158ZM292.333,50.158C292.333,50.903 292.884,51.495 293.639,51.495C294.374,51.495 294.915,50.903 294.915,50.168C294.915,49.423 294.374,48.821 293.629,48.821C292.884,48.821 292.333,49.423 292.333,50.158ZM293.364,51.035L292.976,51.035L292.976,49.362C293.129,49.332 293.344,49.311 293.619,49.311C293.936,49.311 294.078,49.362 294.2,49.434C294.292,49.505 294.364,49.637 294.364,49.8C294.364,49.984 294.221,50.127 294.017,50.188L294.017,50.209C294.18,50.27 294.272,50.392 294.323,50.617C294.374,50.872 294.405,50.974 294.445,51.035L294.027,51.035C293.976,50.974 293.946,50.821 293.894,50.627C293.864,50.443 293.762,50.362 293.548,50.362L293.364,50.362L293.364,51.035ZM293.374,50.086L293.558,50.086C293.772,50.086 293.946,50.015 293.946,49.841C293.946,49.688 293.833,49.587 293.588,49.587C293.486,49.587 293.415,49.597 293.374,49.607L293.374,50.086Z" fill="#FFFFFF"/>
</svg>
