<svg width="56" height="60" viewBox="0 0 56 60" fill="none" xmlns="http://www.w3.org/2000/svg" xmlns:xlink="http://www.w3.org/1999/xlink">
<path d="M18.904,56.32L18.904,47.147C18.904,44.805 20.817,42.907 23.175,42.907L31.798,42.907C32.931,42.907 34.017,43.354 34.818,44.149C35.619,44.944 36.069,46.022 36.069,47.147L36.069,56.32C36.062,57.294 36.446,58.23 37.137,58.921C37.828,59.611 38.768,60 39.749,60L45.631,60C48.379,60.007 51.016,58.928 52.961,57.002C54.907,55.076 56,52.461 56,49.733L56,23.601C56,21.397 55.016,19.308 53.314,17.894L33.302,2.028C29.821,-0.754 24.833,-0.664 21.456,2.241L1.901,17.894C0.118,19.266 -0.947,21.362 -1,23.601L-1,49.707C-1,55.392 3.642,60 9.369,60L15.117,60C17.154,60 18.809,58.369 18.824,56.347L18.904,56.32Z" fill="#FFFFFF"/>
</svg>
