<svg width="58" height="60" viewBox="0 0 58 60" fill="none" xmlns="http://www.w3.org/2000/svg" xmlns:xlink="http://www.w3.org/1999/xlink">
<path d="M19.904,56.32L19.904,47.147C19.904,44.805 21.817,42.907 24.175,42.907L32.798,42.907C33.931,42.907 35.017,43.354 35.818,44.149C36.619,44.944 37.069,46.022 37.069,47.147L37.069,56.32C37.062,57.294 37.446,58.23 38.137,58.921C38.828,59.611 39.768,60 40.749,60L46.631,60C49.379,60.007 52.016,58.928 53.961,57.002C55.907,55.076 57,52.461 57,49.733L57,23.601C57,21.397 56.016,19.308 54.314,17.894L34.302,2.028C30.821,-0.754 25.833,-0.664 22.456,2.241L2.901,17.894C1.118,19.266 0.053,21.362 0,23.601L0,49.707C0,55.392 4.642,60 10.369,60L16.117,60C18.154,60 19.809,58.369 19.824,56.347L19.904,56.32Z" fill="#FFFFFF"/>
</svg>
