<svg width="58" height="56" viewBox="0 0 58 56" fill="none" xmlns="http://www.w3.org/2000/svg" xmlns:xlink="http://www.w3.org/1999/xlink">
<path d="M42.771,34.961C38.915,34.61 36.812,39.868 34.008,41.271C29.451,43.724 21.038,34.961 21.038,34.961C21.038,34.961 12.275,26.548 14.378,21.991C16.131,19.187 21.389,17.084 21.038,13.228C20.688,9.723 12.976,-2.896 9.12,0.609C0.708,8.321 0.006,11.475 0.006,17.785C-0.344,28.651 13.677,42.322 13.677,42.322C15.079,43.724 27.348,56.343 38.214,55.993C44.524,55.993 47.679,55.292 55.39,46.879C58.896,43.023 46.627,35.312 42.771,34.961Z" fill="#FFFFFF"/>
</svg>
