<svg width="60" height="60" viewBox="0 0 60 60" fill="none" xmlns="http://www.w3.org/2000/svg" xmlns:xlink="http://www.w3.org/1999/xlink">
<path d="M18,48C14.685,48 12.03,50.685 12.03,54C12.03,57.315 14.685,60 18,60C21.315,60 24,57.315 24,54C24,50.685 21.315,48 18,48ZM0,0L0,6L6,6L16.785,28.755L12.735,36.105C12.27,36.975 12,37.95 12,39C12,42.315 14.685,45 18,45L54,45L54,39L19.275,39C18.855,39 18.525,38.67 18.525,38.25C18.525,38.115 18.555,37.995 18.615,37.89L21.3,33L43.65,33C45.9,33 47.865,31.755 48.9,29.91L59.625,10.44C59.865,10.02 60,9.525 60,9C60,7.343 58.657,6 57,6L12.645,6L9.795,0L0,0ZM48,48C44.685,48 42.03,50.685 42.03,54C42.03,57.315 44.685,60 48,60C51.315,60 54,57.315 54,54C54,50.685 51.315,48 48,48Z" fill="#FFFFFF"/>
</svg>
