<svg width="60" height="62" viewBox="0 0 60 62" fill="none" xmlns="http://www.w3.org/2000/svg" xmlns:xlink="http://www.w3.org/1999/xlink">
<path d="M30,0.129C13.431,0.129 0,13.561 0,30.129C0,46.698 13.431,60.129 30,60.129C46.569,60.129 60,46.698 60,30.129C60,13.561 46.569,0.129 30,0.129ZM18.222,20.754L41.722,20.754C42.969,20.754 42.325,22.354 41.647,22.764C40.969,23.17 31.584,28.848 31.231,29.058C30.878,29.267 30.428,29.37 29.972,29.37C29.533,29.379 29.099,29.271 28.716,29.058L18.297,22.764C17.619,22.354 16.978,20.754 18.222,20.754ZM42.5,37.942C42.5,38.598 41.713,39.504 41.113,39.504L18.887,39.504C18.287,39.504 17.5,38.598 17.5,37.942L17.5,26.545C17.5,26.258 17.494,25.886 18.037,26.201L28.716,32.498C29.092,32.729 29.531,32.838 29.972,32.811C30.428,32.811 30.759,32.776 31.231,32.498L41.963,26.204C42.506,25.886 42.5,26.261 42.5,26.548L42.5,37.942Z" fill="#FFFFFF"/>
</svg>
